# Blender v2.72 (sub 0) OBJ File: ''
# www.blender.org
o Cylinder
v -0.012620 -0.971884 -1.006083
v -0.012620 1.028116 -1.006083
v 0.182470 -0.971884 -0.986868
v 0.182470 1.028116 -0.986868
v 0.370063 -0.971884 -0.929963
v 0.370063 1.028116 -0.929963
v 0.542950 -0.971884 -0.837553
v 0.542950 1.028116 -0.837553
v 0.694487 -0.971884 -0.713190
v 0.694487 1.028116 -0.713190
v 0.818850 -0.971884 -0.561653
v 0.818850 1.028116 -0.561653
v 0.911259 -0.971884 -0.388766
v 0.911259 1.028116 -0.388766
v 0.968165 -0.971884 -0.201173
v 0.968165 1.028116 -0.201173
v 0.987380 -0.971884 -0.006083
v 0.987380 1.028116 -0.006083
v 0.968165 -0.971884 0.189007
v 0.968165 1.028116 0.189007
v 0.911259 -0.971884 0.376600
v 0.911259 1.028116 0.376600
v 0.818850 -0.971884 0.549487
v 0.818850 1.028116 0.549487
v 0.694487 -0.971884 0.701024
v 0.694487 1.028116 0.701024
v 0.542950 -0.971884 0.825387
v 0.542950 1.028116 0.825387
v 0.370063 -0.971884 0.917797
v 0.370063 1.028116 0.917797
v 0.182470 -0.971884 0.974702
v 0.182470 1.028116 0.974702
v -0.012620 -0.971884 0.993917
v -0.012620 1.028116 0.993917
v -0.207711 -0.971884 0.974702
v -0.207711 1.028116 0.974702
v -0.395304 -0.971884 0.917796
v -0.395304 1.028116 0.917796
v -0.568191 -0.971884 0.825386
v -0.568191 1.028116 0.825386
v -0.719727 -0.971884 0.701023
v -0.719727 1.028116 0.701023
v -0.844090 -0.971884 0.549487
v -0.844090 1.028116 0.549487
v -0.936500 -0.971884 0.376600
v -0.936500 1.028116 0.376600
v -0.993406 -0.971884 0.189006
v -0.993406 1.028116 0.189006
v -1.012620 -0.971884 -0.006084
v -1.012620 1.028116 -0.006084
v -0.993405 -0.971884 -0.201174
v -0.993405 1.028116 -0.201174
v -0.936499 -0.971884 -0.388768
v -0.936499 1.028116 -0.388768
v -0.844089 -0.971884 -0.561654
v -0.844089 1.028116 -0.561654
v -0.719726 -0.971884 -0.713191
v -0.719726 1.028116 -0.713191
v -0.568189 -0.971884 -0.837553
v -0.568189 1.028116 -0.837553
v -0.395302 -0.971884 -0.929963
v -0.395302 1.028116 -0.929963
v -0.207709 -0.971884 -0.986869
v -0.207709 1.028116 -0.986869
vt 0.595482 0.334407
vt 0.554686 0.334407
vt 0.554685 0.000000
vt 0.514673 0.334407
vt 0.514673 0.000000
vt 0.476982 0.334407
vt 0.476982 0.000000
vt 0.443061 0.334407
vt 0.443061 0.000000
vt 0.414213 0.334407
vt 0.414213 0.000000
vt 0.264046 1.000000
vt 0.230125 1.000000
vt 0.230125 0.665593
vt 0.192434 1.000000
vt 0.152421 1.000000
vt 0.152421 0.665593
vt 0.111625 1.000000
vt 0.111625 0.665593
vt 0.071612 1.000000
vt 0.071612 0.665593
vt 0.033921 1.000000
vt 0.033921 0.665593
vt 0.000000 1.000000
vt 0.000000 0.665593
vt 0.707107 0.334407
vt 0.741028 0.334407
vt 0.741028 0.668814
vt 0.778719 0.334407
vt 0.778719 0.668814
vt 0.818731 0.334407
vt 0.818731 0.668814
vt 0.859528 0.334407
vt 0.859528 0.668814
vt 0.899540 0.334407
vt 0.899540 0.668814
vt 0.937231 0.334407
vt 0.937231 0.668814
vt 0.971152 0.334407
vt 0.971152 0.668814
vt 1.000000 0.334407
vt 1.000000 0.668814
vt 0.448134 0.334407
vt 0.448135 0.668814
vt 0.485826 0.334407
vt 0.485826 0.668814
vt 0.525838 0.334407
vt 0.525838 0.668814
vt 0.566635 0.334407
vt 0.566635 0.668814
vt 0.606647 0.334407
vt 0.606647 0.668814
vt 0.644338 0.334407
vt 0.644338 0.668814
vt 0.678259 0.334407
vt 0.678259 0.668814
vt 0.707107 0.668814
vt 0.735954 0.334407
vt 0.707106 0.000000
vt 0.673185 0.334407
vt 0.673185 0.000000
vt 0.186708 0.665593
vt 0.000000 0.482806
vt 0.227505 0.332797
vt 0.635494 0.334407
vt 0.595482 0.000000
vt 0.635494 0.000000
vt 0.406254 0.117862
vt 0.414213 0.150009
vt 0.000000 0.182787
vt 0.264046 0.665593
vt 0.192434 0.665593
vt 0.414213 0.668814
vt 0.735954 0.000000
vt 0.227505 0.665593
vt 0.267518 0.659199
vt 0.305209 0.646655
vt 0.339130 0.628445
vt 0.414213 0.515584
vt 0.367977 0.605268
vt 0.406254 0.547731
vt 0.390642 0.578014
vt 0.305209 0.351735
vt 0.414213 0.482806
vt 0.406254 0.450658
vt 0.390642 0.420376
vt 0.339130 0.369945
vt 0.367977 0.393122
vt 0.267517 0.339191
vt 0.186708 0.332797
vt 0.023571 0.420376
vt 0.075084 0.369945
vt 0.146696 0.339191
vt 0.109005 0.351735
vt 0.046236 0.393122
vt 0.007959 0.450658
vt 0.007959 0.547732
vt 0.000000 0.515584
vt 0.023571 0.578014
vt 0.109005 0.646655
vt 0.075084 0.628445
vt 0.046237 0.605268
vt 0.146696 0.659199
vt 0.007959 0.214935
vt 0.023571 0.245217
vt 0.046236 0.272471
vt 0.146696 0.326402
vt 0.109005 0.313858
vt 0.075084 0.295648
vt 0.367977 0.272471
vt 0.267517 0.326402
vt 0.000000 0.150010
vt 0.007959 0.117862
vt 0.023571 0.087579
vt 0.406254 0.214935
vt 0.390642 0.245217
vt 0.414213 0.182787
vt 0.390642 0.087579
vt 0.367977 0.060326
vt 0.267517 0.006395
vt 0.305208 0.018938
vt 0.339129 0.037148
vt 0.186708 0.000000
vt 0.227505 0.000000
vt 0.046236 0.060326
vt 0.146696 0.006395
vt 0.075084 0.037148
vt 0.109005 0.018938
vt 0.339129 0.295648
vt 0.305208 0.313859
vn 0.098000 0.000000 -0.995200
vn 0.290300 0.000000 -0.956900
vn 0.471400 0.000000 -0.881900
vn 0.634400 0.000000 -0.773000
vn 0.773000 0.000000 -0.634400
vn 0.881900 0.000000 -0.471400
vn 0.956900 0.000000 -0.290300
vn 0.995200 0.000000 -0.098000
vn 0.995200 0.000000 0.098000
vn 0.956900 0.000000 0.290300
vn 0.881900 0.000000 0.471400
vn 0.773000 0.000000 0.634400
vn 0.634400 0.000000 0.773000
vn 0.471400 0.000000 0.881900
vn 0.290300 0.000000 0.956900
vn 0.098000 0.000000 0.995200
vn -0.098000 0.000000 0.995200
vn -0.290300 0.000000 0.956900
vn -0.471400 0.000000 0.881900
vn -0.634400 0.000000 0.773000
vn -0.773000 0.000000 0.634400
vn -0.881900 0.000000 0.471400
vn -0.956900 0.000000 0.290300
vn -0.995200 0.000000 0.098000
vn -0.995200 0.000000 -0.098000
vn -0.956900 0.000000 -0.290300
vn -0.881900 0.000000 -0.471400
vn -0.773000 0.000000 -0.634400
vn -0.634400 0.000000 -0.773000
vn -0.471400 0.000000 -0.881900
vn 0.000000 1.000000 0.000000
vn -0.098000 0.000000 -0.995200
vn -0.290300 0.000000 -0.956900
vn 0.000000 -1.000000 0.000000
s off
f 2/1/1 4/2/1 3/3/1
f 4/2/2 6/4/2 5/5/2
f 6/4/3 8/6/3 7/7/3
f 8/6/4 10/8/4 9/9/4
f 10/8/5 12/10/5 11/11/5
f 12/12/6 14/13/6 13/14/6
f 13/14/7 14/13/7 16/15/7
f 16/15/8 18/16/8 17/17/8
f 18/16/9 20/18/9 19/19/9
f 20/18/10 22/20/10 21/21/10
f 22/20/11 24/22/11 23/23/11
f 24/22/12 26/24/12 25/25/12
f 26/26/13 28/27/13 27/28/13
f 28/27/14 30/29/14 29/30/14
f 30/29/15 32/31/15 31/32/15
f 32/31/16 34/33/16 33/34/16
f 34/33/17 36/35/17 35/36/17
f 36/35/18 38/37/18 37/38/18
f 38/37/19 40/39/19 39/40/19
f 40/39/20 42/41/20 41/42/20
f 42/10/21 44/43/21 43/44/21
f 44/43/22 46/45/22 45/46/22
f 46/45/23 48/47/23 47/48/23
f 48/47/24 50/49/24 49/50/24
f 50/49/25 52/51/25 51/52/25
f 52/51/26 54/53/26 53/54/26
f 54/53/27 56/55/27 55/56/27
f 56/55/28 58/26/28 57/57/28
f 58/58/29 60/26/29 59/59/29
f 60/26/30 62/60/30 61/61/30
f 4/62/31 52/63/31 36/64/31
f 64/65/32 2/1/32 1/66/32
f 62/60/33 64/65/33 63/67/33
f 31/68/34 33/69/34 1/70/34
f 1/66/1 2/1/1 3/3/1
f 3/3/2 4/2/2 5/5/2
f 5/5/3 6/4/3 7/7/3
f 7/7/4 8/6/4 9/9/4
f 9/9/5 10/8/5 11/11/5
f 11/71/6 12/12/6 13/14/6
f 15/72/7 13/14/7 16/15/7
f 15/72/8 16/15/8 17/17/8
f 17/17/9 18/16/9 19/19/9
f 19/19/10 20/18/10 21/21/10
f 21/21/11 22/20/11 23/23/11
f 23/23/12 24/22/12 25/25/12
f 25/57/13 26/26/13 27/28/13
f 27/28/14 28/27/14 29/30/14
f 29/30/15 30/29/15 31/32/15
f 31/32/16 32/31/16 33/34/16
f 33/34/17 34/33/17 35/36/17
f 35/36/18 36/35/18 37/38/18
f 37/38/19 38/37/19 39/40/19
f 39/40/20 40/39/20 41/42/20
f 41/73/21 42/10/21 43/44/21
f 43/44/22 44/43/22 45/46/22
f 45/46/23 46/45/23 47/48/23
f 47/48/24 48/47/24 49/50/24
f 49/50/25 50/49/25 51/52/25
f 51/52/26 52/51/26 53/54/26
f 53/54/27 54/53/27 55/56/27
f 55/56/28 56/55/28 57/57/28
f 57/74/29 58/58/29 59/59/29
f 59/59/30 60/26/30 61/61/30
f 6/75/31 4/62/31 36/64/31
f 8/76/31 6/75/31 10/77/31
f 12/78/31 20/79/31 14/80/31
f 20/79/31 18/81/31 16/82/31
f 20/79/31 32/83/31 22/84/31
f 24/85/31 22/84/31 26/86/31
f 32/83/31 30/87/31 28/88/31
f 36/64/31 34/89/31 32/83/31
f 38/90/31 48/91/31 44/92/31
f 40/93/31 38/90/31 42/94/31
f 48/91/31 46/95/31 44/92/31
f 52/63/31 50/96/31 48/91/31
f 56/97/31 54/98/31 52/63/31
f 56/97/31 52/63/31 58/99/31
f 64/100/31 62/101/31 60/102/31
f 4/62/31 2/103/31 64/100/31
f 6/75/31 12/78/31 10/77/31
f 38/90/31 44/92/31 42/94/31
f 22/84/31 32/83/31 28/88/31
f 48/91/31 38/90/31 52/63/31
f 38/90/31 36/64/31 52/63/31
f 22/84/31 28/88/31 26/86/31
f 4/62/31 64/100/31 52/63/31
f 60/102/31 58/99/31 64/100/31
f 12/78/31 6/75/31 20/79/31
f 20/79/31 16/82/31 14/80/31
f 61/61/33 62/60/33 63/67/33
f 64/100/31 58/99/31 52/63/31
f 20/79/31 6/75/31 36/64/31
f 63/67/32 64/65/32 1/66/32
f 20/79/31 36/64/31 32/83/31
f 63/104/34 1/70/34 33/69/34
f 61/105/34 63/104/34 59/106/34
f 53/107/34 55/108/34 57/109/34
f 53/107/34 41/110/34 51/90/34
f 49/64/34 51/90/34 47/111/34
f 3/112/34 5/113/34 7/114/34
f 37/115/34 39/116/34 41/110/34
f 33/69/34 35/117/34 37/115/34
f 63/104/34 57/109/34 59/106/34
f 29/118/34 31/68/34 27/119/34
f 21/120/34 23/121/34 25/122/34
f 17/123/34 19/124/34 21/120/34
f 17/123/34 9/125/34 15/126/34
f 9/125/34 11/127/34 13/128/34
f 9/125/34 3/112/34 7/114/34
f 57/109/34 41/110/34 53/107/34
f 51/90/34 41/110/34 43/129/34
f 41/110/34 57/109/34 37/115/34
f 21/120/34 31/68/34 1/70/34
f 25/122/34 27/119/34 21/120/34
f 9/125/34 1/70/34 3/112/34
f 43/129/34 45/130/34 47/111/34
f 37/115/34 63/104/34 33/69/34
f 51/90/34 43/129/34 47/111/34
f 9/125/34 13/128/34 15/126/34
f 1/70/34 9/125/34 17/123/34
f 57/109/34 63/104/34 37/115/34
f 17/123/34 21/120/34 1/70/34
f 27/119/34 31/68/34 21/120/34
