# Blender v2.72 (sub 0) OBJ File: ''
# www.blender.org
o Icosphere
v 0.000000 -1.000000 0.000000
v 0.723607 -0.447220 0.525725
v -0.276388 -0.447220 0.850649
v -0.894426 -0.447216 0.000000
v -0.276388 -0.447220 -0.850649
v 0.723607 -0.447220 -0.525725
v 0.276388 0.447220 0.850649
v -0.723607 0.447220 0.525725
v -0.723607 0.447220 -0.525725
v 0.276388 0.447220 -0.850649
v 0.894426 0.447216 0.000000
v 0.000000 1.000000 0.000000
v -0.162456 -0.850654 0.499995
v 0.425323 -0.850654 0.309011
v 0.262869 -0.525738 0.809012
v 0.850648 -0.525736 0.000000
v 0.425323 -0.850654 -0.309011
v -0.525730 -0.850652 0.000000
v -0.688189 -0.525736 0.499997
v -0.162456 -0.850654 -0.499995
v -0.688189 -0.525736 -0.499997
v 0.262869 -0.525738 -0.809012
v 0.951058 0.000000 0.309013
v 0.951058 0.000000 -0.309013
v 0.000000 0.000000 1.000000
v 0.587786 0.000000 0.809017
v -0.951058 0.000000 0.309013
v -0.587786 0.000000 0.809017
v -0.587786 0.000000 -0.809017
v -0.951058 0.000000 -0.309013
v 0.587786 0.000000 -0.809017
v 0.000000 0.000000 -1.000000
v 0.688189 0.525736 0.499997
v -0.262869 0.525738 0.809012
v -0.850648 0.525736 0.000000
v -0.262869 0.525738 -0.809012
v 0.688189 0.525736 -0.499997
v 0.162456 0.850654 0.499995
v 0.525730 0.850652 0.000000
v -0.425323 0.850654 0.309011
v -0.425323 0.850654 -0.309011
v 0.162456 0.850654 -0.499995
vt 0.248707 0.692800
vt 0.119092 0.679326
vt 0.203892 0.536898
vt 0.000000 0.692800
vt 0.047749 0.856214
vt 0.331147 0.625762
vt 0.324993 0.823110
vt 0.193936 0.856213
vt 0.443639 0.093998
vt 0.542681 0.000000
vt 0.558994 0.165910
vt 0.919341 0.153584
vt 1.000000 0.082506
vt 0.998936 0.280037
vt 0.670791 0.165900
vt 0.789459 0.146536
vt 0.722719 0.326848
vt 0.108243 0.093999
vt 0.223598 0.165910
vt 0.095488 0.268450
vt 0.856497 0.997247
vt 0.730098 0.997247
vt 0.793479 0.856507
vt 0.430883 0.268448
vt 0.868814 0.319609
vt 0.326196 0.268448
vt 0.335396 0.434358
vt 0.223598 0.370988
vt 0.000000 0.165912
vt 0.939574 0.863745
vt 0.443639 0.442899
vt 0.558994 0.370988
vt 0.542682 0.536898
vt 0.458480 0.543157
vt 0.584798 0.536899
vt 0.525083 0.680686
vt 0.331147 0.844097
vt 0.378896 0.680684
vt 0.450239 0.857572
vt 0.742952 0.690482
vt 0.662293 0.619404
vt 0.791756 0.536898
vt 0.991502 0.702798
vt 0.872834 0.683434
vt 0.937850 0.544137
vt 0.870537 0.000000
vt 0.057705 0.536898
vt 0.127332 0.993741
vt 0.724443 0.007240
vt 0.207286 0.000000
vt 0.335395 0.102538
vt 0.253651 1.000000
vt 0.069096 0.000000
vt 0.670791 0.102540
vt 0.661592 0.268450
vt 0.017115 1.000000
vt 0.335396 0.370986
vt 0.335396 0.165907
vt 0.805796 0.460349
vt 0.108244 0.442900
vt 0.663358 0.816935
vt 0.932195 0.460349
vt 0.404492 0.536898
vt 0.207286 0.536898
vt 0.348262 0.536898
vt 0.000001 0.370991
vt 0.656140 0.713788
vt 0.662294 0.911137
vt 0.579854 0.844099
vt 0.670791 0.434360
vt 0.535039 1.000000
vt 0.388852 1.000000
vn 0.102400 -0.943500 0.315100
vn 0.700200 -0.661700 0.268000
vn -0.268000 -0.943500 0.194700
vn -0.268000 -0.943500 -0.194700
vn 0.102400 -0.943500 -0.315100
vn 0.905000 -0.330400 0.268000
vn 0.024700 -0.330400 0.943500
vn -0.889700 -0.330400 0.315100
vn -0.574600 -0.330400 -0.748800
vn 0.534600 -0.330400 -0.777900
vn 0.802600 -0.125600 0.583100
vn -0.306600 -0.125600 0.943500
vn -0.992100 -0.125600 0.000000
vn -0.306600 -0.125600 -0.943500
vn 0.802600 -0.125600 -0.583100
vn 0.408900 0.661700 0.628400
vn -0.471300 0.661700 0.583100
vn -0.700200 0.661700 -0.268000
vn 0.038500 0.661700 -0.748800
vn 0.724000 0.661700 -0.194700
vn -0.038500 -0.661700 0.748800
vn 0.187600 -0.794700 0.577300
vn 0.471300 -0.661700 0.583100
vn 0.700200 -0.661700 -0.268000
vn 0.607100 -0.794700 0.000000
vn 0.331300 -0.943500 0.000000
vn -0.724000 -0.661700 0.194700
vn -0.491100 -0.794700 0.356800
vn -0.408900 -0.661700 0.628400
vn -0.408900 -0.661700 -0.628400
vn -0.491100 -0.794700 -0.356800
vn -0.724000 -0.661700 -0.194700
vn 0.471300 -0.661700 -0.583100
vn 0.187600 -0.794700 -0.577300
vn -0.038500 -0.661700 -0.748800
vn 0.992100 0.125600 0.000000
vn 0.982200 -0.187600 0.000000
vn 0.905000 -0.330400 -0.268000
vn 0.306600 0.125600 0.943500
vn 0.303500 -0.187600 0.934200
vn 0.534600 -0.330400 0.777900
vn -0.802600 0.125600 0.583100
vn -0.794700 -0.187600 0.577300
vn -0.574600 -0.330400 0.748800
vn -0.802600 0.125600 -0.583100
vn -0.794700 -0.187600 -0.577300
vn -0.889700 -0.330400 -0.315100
vn 0.306600 0.125600 -0.943500
vn 0.303500 -0.187600 -0.934200
vn 0.024700 -0.330400 -0.943500
vn 0.574600 0.330400 0.748800
vn 0.794700 0.187600 0.577300
vn 0.889700 0.330400 0.315100
vn -0.534600 0.330400 0.777900
vn -0.303500 0.187600 0.934200
vn -0.024700 0.330400 0.943500
vn -0.905000 0.330400 -0.268000
vn -0.982200 0.187600 0.000000
vn -0.905000 0.330400 0.268000
vn -0.024700 0.330400 -0.943500
vn -0.303500 0.187600 -0.934200
vn -0.534600 0.330400 -0.777900
vn 0.889700 0.330400 -0.315100
vn 0.794700 0.187600 -0.577300
vn 0.574600 0.330400 -0.748800
vn 0.268000 0.943500 0.194700
vn 0.491100 0.794700 0.356800
vn 0.724000 0.661700 0.194700
vn -0.102400 0.943500 0.315100
vn -0.187600 0.794700 0.577300
vn 0.038500 0.661700 0.748800
vn -0.331300 0.943500 0.000000
vn -0.607100 0.794700 0.000000
vn -0.700200 0.661700 0.268000
vn -0.102400 0.943500 -0.315100
vn -0.187600 0.794700 -0.577300
vn -0.471300 0.661700 -0.583100
vn 0.268000 0.943500 -0.194700
vn 0.491100 0.794700 -0.356800
vn 0.408900 0.661700 -0.628400
s off
f 1/1/1 14/2/1 13/3/1
f 2/4/2 14/2/2 16/5/2
f 1/1/3 13/3/3 18/6/3
f 1/1/4 18/6/4 20/7/4
f 1/1/5 20/7/5 17/8/5
f 2/9/6 16/10/6 23/11/6
f 3/12/7 15/13/7 25/14/7
f 4/15/8 19/16/8 27/17/8
f 5/18/9 21/19/9 29/20/9
f 6/21/10 22/22/10 31/23/10
f 2/9/11 23/11/11 26/24/11
f 3/12/12 25/14/12 28/25/12
f 4/26/13 27/27/13 30/28/13
f 5/18/14 29/20/14 32/29/14
f 6/21/15 31/23/15 24/30/15
f 7/31/16 33/32/16 38/33/16
f 8/34/17 34/35/17 40/36/17
f 9/37/18 35/38/18 41/39/18
f 10/40/19 36/41/19 42/42/19
f 11/43/20 37/44/20 39/45/20
f 13/46/21 15/13/21 3/12/21
f 13/3/22 14/2/22 15/47/22
f 14/2/23 2/4/23 15/47/23
f 16/5/24 17/8/24 6/48/24
f 16/5/25 14/2/25 17/8/25
f 14/2/26 1/1/26 17/8/26
f 18/49/27 19/16/27 4/15/27
f 18/49/28 13/46/28 19/16/28
f 13/46/29 3/12/29 19/16/29
f 20/50/30 21/19/30 5/18/30
f 20/50/31 18/51/31 21/19/31
f 18/51/32 4/26/32 21/19/32
f 17/8/33 22/52/33 6/48/33
f 17/8/34 20/7/34 22/52/34
f 20/50/35 5/18/35 22/53/35
f 23/11/36 24/54/36 11/55/36
f 23/11/37 16/10/37 24/54/37
f 16/5/38 6/48/38 24/56/38
f 25/57/39 26/24/39 7/31/39
f 25/57/40 15/58/40 26/24/40
f 15/58/41 2/9/41 26/24/41
f 27/17/42 28/25/42 8/59/42
f 27/17/43 19/16/43 28/25/43
f 19/16/44 3/12/44 28/25/44
f 29/20/45 30/28/45 9/60/45
f 29/20/46 21/19/46 30/28/46
f 21/19/47 4/26/47 30/28/47
f 31/23/48 32/61/48 10/40/48
f 31/23/49 22/22/49 32/61/49
f 22/53/50 5/18/50 32/29/50
f 26/24/51 33/32/51 7/31/51
f 26/24/52 23/11/52 33/32/52
f 23/11/53 11/55/53 33/32/53
f 28/25/54 34/62/54 8/59/54
f 28/25/55 25/14/55 34/62/55
f 25/57/56 7/31/56 34/63/56
f 30/28/57 35/64/57 9/60/57
f 30/28/58 27/27/58 35/64/58
f 27/65/59 8/34/59 35/38/59
f 32/61/60 36/41/60 10/40/60
f 32/29/61 29/20/61 36/66/61
f 29/20/62 9/60/62 36/66/62
f 24/30/63 37/44/63 11/43/63
f 24/30/64 31/23/64 37/44/64
f 31/23/65 10/40/65 37/44/65
f 38/67/66 39/68/66 12/69/66
f 38/33/67 33/32/67 39/70/67
f 33/32/68 11/55/68 39/70/68
f 40/36/69 38/67/69 12/69/69
f 40/36/70 34/35/70 38/67/70
f 34/63/71 7/31/71 38/33/71
f 41/39/72 40/36/72 12/69/72
f 41/39/73 35/38/73 40/36/73
f 35/38/74 8/34/74 40/36/74
f 42/71/75 41/39/75 12/69/75
f 42/71/76 36/72/76 41/39/76
f 36/72/77 9/37/77 41/39/77
f 39/68/78 42/71/78 12/69/78
f 39/45/79 37/44/79 42/42/79
f 37/44/80 10/40/80 42/42/80
